<svg id="Layer_2" data-name="Layer 2" xmlns="http://www.w3.org/2000/svg" width="189.76" height="399.52" viewBox="0 0 189.76 399.52">
<defs><style>.cls-1{fill:#3b3b3b;}</style></defs>
<path class="cls-1" 
d="M92.42,399.76c-2.89-1.34-3.77-3.65-3.75-6.74.08-17.23,0-34.47,0-51.7a5.13,5.13,0,0,0-.74-2.7,63.09,63.09,0,0,0-17-19.15l-.94-.73s0-.07,0-.2a36.19,36.19,0,0,0,8.6-3.29,29.54,29.54,0,0,0,9.3-7.74,3.61,3.61,0,0,0,.83-2.39q0-78.63,0-157.25a3.33,3.33,0,0,0-.78-2.27Q61.75,113.5,35.6,81.38c-5.1-6.27-10.18-12.56-15.3-18.83-6.58-8-6.12-18.33,1.18-25.71,3.05-3.08,6.72-5.35,10.27-7.77a266.87,266.87,0,0,1,49.12-27C84.93.43,89.11-.34,93.47.75a8.25,8.25,0,0,1,5.2,4.05c2.5,4.1,1.89,8.12,0,12.18A38.07,38.07,0,0,1,93,25.92a7.33,7.33,0,0,0-1.88,5.73C92.49,44,97.56,54,109.08,59.77a22.61,22.61,0,0,0,6.48,2c.71.12.92-.05.81-.77-.15-1-.18-2-.31-3a6.22,6.22,0,0,1,2.36-5.7,13,13,0,0,1,5.92-2.67c2-.44,4-.8,6-1.18a4.55,4.55,0,0,1,5.14,3.77c.41,1.82.67,3.68,1,5.52.07.47.12.83.76.81,6.09-.24,10,3.74,11.39,8.77a1.91,1.91,0,0,0,1.34,1.53,3.92,3.92,0,0,1,1.34,6.41,1.29,1.29,0,0,0-.44,1.35q.81,3.12,1.54,6.26a1.19,1.19,0,0,0,.86,1,4,4,0,0,1,1.6,6.46,1.22,1.22,0,0,0-.37,1.26c.55,2.07,1.07,4.16,1.54,6.26a1.18,1.18,0,0,0,.86,1,4,4,0,0,1,1.58,6.46c-.3.36-.52.61-.38,1.13.54,2,1,4,1.49,6a1.05,1.05,0,0,0,.78.89,4,4,0,0,1,1.64,6.51,1.14,1.14,0,0,0-.37,1.15c.54,2.08,1.07,4.16,1.54,6.26a1.1,1.1,0,0,0,.79.89,3.93,3.93,0,0,1,1.57,6.51,1.26,1.26,0,0,0-.25,1.29q4.2,17.22,8.36,34.44c2.23,9.32,4.7,18.59,6.68,28a39.58,39.58,0,0,1,.92,12.7c-.68,5.95-2.72,8.22-8.6,9.48-10.56,2.26-19.81-.63-28.14-7.15-4.19-3.28-7.42-7.43-10.74-11.51l-33.37-41c-.24-.29-.51-.58-.8-.91a2.18,2.18,0,0,0-.15,1.33q0,29.86,0,59.72a6.43,6.43,0,0,0,.68,3,63,63,0,0,0,19.34,23.16c.25.18.49.38.86.67a47.24,47.24,0,0,0-5.16,1.67c-6.44,2.64-11.73,6.64-15.15,12.87a4.55,4.55,0,0,0-.57,2.26q0,64.2.06,128.41c0,3.1-.79,5.41-3.68,6.77Zm2.66-262.11,0,.17h.11l-.13-.14a2.54,2.54,0,0,0-.13-.56,200.07,200.07,0,0,0-22.36-36.43C61.46,86.44,49.88,72.6,38.4,58.67,34.17,53.54,29.71,48.6,25.84,43.1c-2,2.67-3,5.49-2.28,8.77a14.4,14.4,0,0,0,3.16,5.82q16.2,19.86,32.39,39.75l32.54,39.93c.21.26.36.73.79.61A26.08,26.08,0,0,1,95.08,137.65ZM61.4,25.2c-.19.07-.24.07-.25.09-6.79,10.28-10.28,21.46-9.08,33.88.17,1.81.21,3.67,1.53,5.27,5.23,6.27,10.34,12.65,15.54,18.94,10.62,12.85,20.54,26.18,28.33,41a1.39,1.39,0,0,0,1.31.82c2.78.15,5.56.38,8.34.46,8.24.21,16.47-.21,24.7-.72,2.72-.16,5.44-.42,8.24-.64l-.22-.69c-4.35-13-8.65-26-12.77-39.09-.27-.84-.64-1-1.44-.86a30.24,30.24,0,0,1-3.69.28c-9.51.22-18.18-2.61-26.29-7.39C85,70.27,76.8,61.44,69.89,51.36,64.53,43.52,61.15,35,61.4,25.2Zm40.88,108.52c0,.11.1.3.18.47,6.24,13.22,12.86,26.26,20.13,39,1.75,3.06,3.26,6.28,5.54,9q6.66,8.07,13.2,16.22c3.23,4,6.6,7.89,11,10.66,6,3.74,12.33,5.16,19.27,3.36a1.69,1.69,0,0,0,1.47-1.56,29.22,29.22,0,0,0-.67-10.79c-2.07-9-4.3-18-6.45-27a1.26,1.26,0,0,0-.87-1,14.08,14.08,0,0,1-4.16-2.75,37.92,37.92,0,0,1-8.21-11.63c-3.91-7.89-6.63-16.25-9.58-24.52-.27-.77-.56-1-1.41-.94-5.46.57-10.94.91-16.42,1.18-5.77.3-11.53.4-17.3.35C106.12,133.71,104.22,133.72,102.28,133.72ZM79.81,11.34c-2,.75-3.69,1.46-5.45,2a3.09,3.09,0,0,0-1.75,1.48A22.58,22.58,0,0,0,69.5,25.15,30.92,30.92,0,0,0,73.14,40.9c4.34,8.63,10.54,15.81,17.72,22.15a52.51,52.51,0,0,0,19.3,11.09,37.23,37.23,0,0,0,13.18,1.69c.85,0,.88-.32.65-1-.45-1.31-.88-2.64-1.25-4-.21-.78-.54-1-1.4-1a32,32,0,0,1-23.49-7.82A89,89,0,0,1,87.12,51.53c-4.51-5.25-8.47-10.85-10.81-17.45-2.12-6-2.4-11.89.81-17.65C78,14.84,78.83,13.21,79.81,11.34ZM147,119.43c-.13-2.87,1-4.44,3.87-5,.67-.12.85-.34.67-1-.38-1.39-.68-2.78-1-4.18-.39-1.67-.39-1.67-2.16-1.36a4,4,0,0,1-4.86-3.83,4,4,0,0,1,3.65-4.15c1-.14,1.05-.43.8-1.27-.4-1.37-.68-2.78-1-4.17-.42-1.76-.42-1.76-2.23-1.54-2.56.33-4.53-1.11-4.78-3.48a3.89,3.89,0,0,1,3.42-4.41c1.11-.16,1.23-.55.95-1.51q-.69-2.42-1.18-4.87c-.18-.87-.48-1.13-1.41-.9A4,4,0,1,1,139.82,70c1.11-.18,1.09-.57.69-1.39a3.14,3.14,0,0,0-3.91-1.9c-1.75.38-3.45.93-5.2,1.33-.86.19-1,.49-.73,1.35,4,12.17,7.84,24.35,11.78,36.53C143.91,110.41,145.46,114.91,147,119.43ZM43.75,52.49A56.78,56.78,0,0,1,46.3,37.55,74.63,74.63,0,0,1,52.23,24a38.86,38.86,0,0,0-3.54,2A104.77,104.77,0,0,0,32.54,38c-.31.28-1,.47-.27,1.13a48.59,48.59,0,0,1,5,5.61C39.37,47.21,41.45,49.72,43.75,52.49Zm109.32,84.57c2.73,7.24,5.09,14.38,9.1,20.8-.39-2.05-.88-4.05-1.36-6.06q-1.68-7-3.38-13.91c-.1-.44,0-1.13-.89-.88A6.35,6.35,0,0,1,153.07,137.06Zm-5.86-16.88c1.27,3.67,2.53,7.35,3.86,11.22a4.36,4.36,0,0,1,3.49-2.19c.48-.05.75-.19.58-.83-.51-1.84-.93-3.7-1.35-5.56-.13-.6-.36-.71-1-.55A4.58,4.58,0,0,1,147.21,120.18ZM83,26.86a28.18,28.18,0,0,1,4-6.22,33.92,33.92,0,0,0,2.93-4.2A19.73,19.73,0,0,0,92,12c.13-.43.47-1,0-1.29s-.9.1-1.29.38a11.36,11.36,0,0,0-2.24,2.3,44.39,44.39,0,0,0-4.88,8.42A8.92,8.92,0,0,0,83,26.86Z" 
transform="translate(-5.12 -0.24)"/>
<path class="cls-1" 
d="M5.12,224.07c.57-1.49.44-3.09.66-4.63.37-2.57.91-5.09,1.44-7.62.09-.46.2-.7.73-.68,14.66.46,29.12,2,42.77,7.91,10.22,4.39,18.76,10.85,24.77,20.38a51.06,51.06,0,0,1,7.62,23.22A66.18,66.18,0,0,1,80,290.09c-.16.49-.16,1-1,1.07-13,.71-25.8.09-38.13-4.45-18.73-6.89-29.77-20.47-34.06-39.8a71.7,71.7,0,0,1-1.42-9.68c0-.19,0-.41-.24-.47ZM25,223.22l47.36,51.26a61.66,61.66,0,0,0-.29-13.42,38.6,38.6,0,0,0-12.21-23.68c-5.94-5.43-13-8.78-20.6-11.11A87.63,87.63,0,0,0,25,223.22Zm38,56.92-47.15-51c0,.71,0,1.06,0,1.41a66.63,66.63,0,0,0,1.71,15.29c1.9,8,5.34,15.25,11.28,21.07C38.29,276.16,50.21,279.26,63,280.14Z" 
transform="translate(-5.12 -0.24)"/>
<path class="cls-1" 
d="M160.82,264.56a84.93,84.93,0,0,1,33.42,7.13c.48.22.74.34.6,1-2.8,12.84-6.59,25.31-13.22,36.76-5.18,8.93-11.76,16.55-20.7,21.9a48.81,48.81,0,0,1-23.66,6.92A66.39,66.39,0,0,1,102,329.66c-.49-.27-.93-.43-.82-1.21,1.82-13.23,5-26,12-37.57,9-14.7,22-23.3,39.09-25.67,1.18-.17,2.36-.32,3.55-.4C157.66,264.68,159.45,264.62,160.82,264.56Zm18.59,22.88c-.17.09-.36.16-.52.26l-59.28,37c-.21.14-.54.19-.53.58a54.28,54.28,0,0,0,17.77,2.32,39.22,39.22,0,0,0,28-13.24c7.06-7.72,11.43-16.94,14.76-26.73l0-.3Zm-64.64,27.61,60.93-38a6,6,0,0,0-.67-.24,66.54,66.54,0,0,0-21-1,41.41,41.41,0,0,0-21.36,8.67c-6.87,5.5-11.37,12.68-14.64,20.73A74.44,74.44,0,0,0,114.77,315.05Z" 
transform="translate(-5.12 -0.24)"/></svg>